<svg width="30" height="30" viewBox="0 0 30 30" fill="none" xmlns="http://www.w3.org/2000/svg">
<path d="M10.6167 4.18333C10.3156 5.26309 10.1642 6.37906 10.1667 7.5C10.1667 14.3 15.7 19.8333 22.5 19.8333C23.6333 19.8333 24.75 19.6833 25.8167 19.3833C24.9412 21.5345 23.4447 23.3762 21.5182 24.6734C19.5918 25.9705 17.3225 26.6645 15 26.6667C8.56667 26.6667 3.33334 21.4333 3.33334 15C3.33334 10.1167 6.35001 5.91667 10.6167 4.18333ZM15 0C12.0333 0 9.13319 0.879735 6.66645 2.52796C4.19972 4.17618 2.27713 6.51886 1.14181 9.25975C0.00649919 12.0006 -0.290551 15.0166 0.288228 17.9264C0.867006 20.8361 2.29562 23.5088 4.3934 25.6066C6.49119 27.7044 9.16394 29.133 12.0737 29.7118C14.9834 30.2906 17.9994 29.9935 20.7403 28.8582C23.4811 27.7229 25.8238 25.8003 27.472 23.3336C29.1203 20.8668 30 17.9667 30 15C30 14.2333 29.9333 13.4667 29.8333 12.7333C29.0006 13.9011 27.9002 14.8524 26.6244 15.5078C25.3485 16.1631 23.9343 16.5033 22.5 16.5C20.592 16.5 18.7333 15.8941 17.192 14.7694C15.6507 13.6448 14.5064 12.0597 13.9242 10.2427C13.342 8.42568 13.352 6.47072 13.9528 4.65976C14.5535 2.84881 15.7139 1.27547 17.2667 0.166667C16.5333 0.0666665 15.7667 0 15 0Z" fill="#070724"/>
</svg>
