<svg width="40" height="40" viewBox="0 0 40 40" fill="none" xmlns="http://www.w3.org/2000/svg">
<g clip-path="url(#clip0_652_388)">
<path d="M12.5034 0H16.8001V1.79667H14.3001V3.59333H16.8001V5.39H12.5034V0ZM17.6584 0H21.9568V1.56333H19.4568V1.875H21.9568V5.46833H17.6584V3.82833H20.1584V3.515H17.6584V0ZM22.8168 0H27.1118V1.56333H24.6118V1.875H27.1118V5.46833H22.8168V3.82833H25.3168V3.515H22.8168V0Z" fill="#5454D4"/>
<path fill-rule="evenodd" clip-rule="evenodd" d="M19.985 39.9997L8.41167 36.7863L5 7.86133H35L31.59 36.783L19.985 39.9997ZM11.745 20.9547L12.0633 24.5013H24.3583L23.9467 29.1013L19.99 30.1713H19.9867L16.0367 29.1047L15.7833 26.2763H12.2217L12.7183 31.8463L19.985 33.863L27.2633 31.8463L28.15 21.9063L28.2367 20.9547L28.8767 13.773H11.1067L11.43 17.3213H24.99L24.6667 20.9547H11.745Z" fill="#5454D4"/>
</g>
<defs>
<clipPath id="clip0_652_388">
<rect width="40" height="40" fill="white"/>
</clipPath>
</defs>
</svg>
