<svg width="40" height="40" viewBox="0 0 40 40" fill="none" xmlns="http://www.w3.org/2000/svg">
<path d="M15.1562 30.7292C15.1562 31.875 14.349 32.4479 12.7344 32.4479C10.8767 32.4479 9.94792 31.901 9.94792 30.8073C9.94792 29.6962 10.7986 29.1406 12.5 29.1406C14.2708 29.1406 15.1562 29.6701 15.1562 30.7292ZM14.2188 18.5938C14.2188 20.0694 13.5764 20.8073 12.2917 20.8073C10.9549 20.8073 10.2865 20.0781 10.2865 18.6198C10.2865 17.0573 10.9549 16.276 12.2917 16.276C12.9167 16.276 13.3941 16.4974 13.724 16.9401C14.0538 17.3828 14.2188 17.934 14.2188 18.5938ZM18.5417 16.6406V13.3854C17.1875 13.8889 16.0156 14.1406 15.026 14.1406C14.158 13.6372 13.2031 13.3854 12.1615 13.3854C10.6684 13.3854 9.40972 13.8802 8.38542 14.8698C7.36111 15.8594 6.84896 17.1007 6.84896 18.5938C6.84896 19.4618 7.10503 20.3472 7.61719 21.25C8.12934 22.1528 8.76736 22.7344 9.53125 22.9948V23.0729C8.87153 23.3681 8.54167 24.1059 8.54167 25.2865C8.54167 26.2066 8.89757 26.875 9.60938 27.2917V27.3698C7.64757 28.0122 6.66667 29.2188 6.66667 30.9896C6.66667 31.7708 6.84028 32.4523 7.1875 33.0339C7.53472 33.6155 8.00347 34.0582 8.59375 34.362C9.18403 34.6658 9.80903 34.8872 10.4688 35.026C11.1285 35.1649 11.8316 35.2344 12.5781 35.2344C16.467 35.2344 18.4115 33.6024 18.4115 30.3385C18.4115 29.1753 17.9948 28.316 17.1615 27.7604C16.3281 27.2049 15.2344 26.8056 13.8802 26.5625C13.4115 26.4757 12.9644 26.2977 12.5391 26.0286C12.1137 25.7595 11.901 25.4167 11.901 25C11.901 24.2361 12.3264 23.7847 13.1771 23.6458C14.5139 23.3854 15.5729 22.7778 16.3542 21.8229C17.1354 20.8681 17.526 19.7049 17.526 18.3333C17.526 17.9167 17.4392 17.4653 17.2656 16.9792C17.908 16.8229 18.3333 16.7101 18.5417 16.6406ZM20.0781 27.5521H23.6458C23.6111 27.0833 23.5938 26.3715 23.5938 25.4167V15.3385C23.5938 14.5399 23.6111 13.941 23.6458 13.5417H20.0781C20.1302 13.941 20.1562 14.5573 20.1562 15.3906V25.599C20.1562 26.467 20.1302 27.1181 20.0781 27.5521ZM33.3333 27.1354V23.9844C32.8125 24.349 32.2222 24.5312 31.5625 24.5312C30.6424 24.5312 30.1823 23.8194 30.1823 22.3958V16.5365H31.5365C31.6927 16.5365 31.9227 16.5451 32.2266 16.5625C32.5304 16.5799 32.7604 16.5885 32.9167 16.5885V13.5417H30.1823C30.1823 12.1181 30.2083 11.2326 30.2604 10.8854H26.6146C26.684 11.3021 26.7188 11.7795 26.7188 12.3177V13.5417H25.1562V16.5885C25.7812 16.5365 26.1024 16.5104 26.1198 16.5104C26.1719 16.5104 26.2674 16.5148 26.4062 16.5234C26.5451 16.5321 26.6493 16.5365 26.7188 16.5365V16.5885H26.6667V22.2396C26.6667 22.8819 26.6884 23.4375 26.7318 23.9062C26.7752 24.375 26.875 24.8654 27.0312 25.3776C27.1875 25.8898 27.4002 26.3108 27.6693 26.6406C27.9384 26.9705 28.316 27.2396 28.8021 27.4479C29.2882 27.6562 29.8611 27.7604 30.5208 27.7604C31.6319 27.7604 32.5694 27.5521 33.3333 27.1354ZM24.0625 8.75C24.0625 8.125 23.8542 7.57378 23.4375 7.09635C23.0208 6.61892 22.5 6.38021 21.875 6.38021C21.25 6.38021 20.7248 6.61458 20.2995 7.08333C19.8741 7.55208 19.6615 8.10764 19.6615 8.75C19.6615 9.375 19.8785 9.91753 20.3125 10.3776C20.7465 10.8377 21.2674 11.0677 21.875 11.0677C22.4826 11.0677 22.9991 10.8333 23.4245 10.3646C23.8498 9.89583 24.0625 9.35764 24.0625 8.75ZM40 7.5V32.5C40 34.566 39.2665 36.3325 37.7995 37.7995C36.3325 39.2665 34.566 40 32.5 40H7.5C5.43403 40 3.66753 39.2665 2.20052 37.7995C0.733507 36.3325 0 34.566 0 32.5V7.5C0 5.43403 0.733507 3.66753 2.20052 2.20052C3.66753 0.733507 5.43403 0 7.5 0H32.5C34.566 0 36.3325 0.733507 37.7995 2.20052C39.2665 3.66753 40 5.43403 40 7.5Z" fill="#5454D4"/>
</svg>
