<svg width="40" height="40" viewBox="0 0 40 40" fill="none" xmlns="http://www.w3.org/2000/svg">
<path d="M8.4668 0H10.2701V1.78167H11.9201V0H13.7235V5.39333H11.9201V3.58833H10.2701V5.39333H8.46846V0H8.4668ZM16.0935 1.78833H14.5068V0H19.4851V1.78833H17.8968V5.39333H16.0935V1.78833ZM20.2751 0H22.1551L23.3118 1.895L24.4668 0H26.3468V5.39333H24.5518V2.72L23.3118 4.63833H23.2801L22.0385 2.72167V5.39333H20.2751V0ZM27.2435 0H29.0485V3.61167H31.5818V5.395H27.2435V0Z" fill="#5454D4"/>
<path fill-rule="evenodd" clip-rule="evenodd" d="M8.41 36.7863L5 7.86133H35L31.5883 36.783L19.9833 39.9997L8.41 36.7863ZM15.305 20.953L14.9817 17.3197H28.5567L28.8733 13.773H11.1067L12.0633 24.5013H24.3583L23.9467 29.1013L19.99 30.1713H19.9867L16.0367 29.1047L15.7833 26.2763H12.22L12.7167 31.8463L19.9833 33.863L27.2617 31.8463L28.1483 21.9063L28.235 20.9547H15.305V20.953Z" fill="#5454D4"/>
</svg>
