<svg width="30" height="40" viewBox="0 0 30 40" fill="none" xmlns="http://www.w3.org/2000/svg">
<path d="M3.4668 0H5.27013V1.78167H6.92013V0H8.72346V5.39333H6.92013V3.58833H5.27013V5.39333H3.46846V0H3.4668ZM11.0935 1.78833H9.5068V0H14.4851V1.78833H12.8968V5.39333H11.0935V1.78833ZM15.2751 0H17.1551L18.3118 1.895L19.4668 0H21.3468V5.39333H19.5518V2.72L18.3118 4.63833H18.2801L17.0385 2.72167V5.39333H15.2751V0ZM22.2435 0H24.0485V3.61167H26.5818V5.395H22.2435V0Z" fill="#5454D4"/>
<path fill-rule="evenodd" clip-rule="evenodd" d="M3.41 36.7863L0 7.86133H30L26.5883 36.783L14.9833 39.9997L3.41 36.7863ZM10.305 20.953L9.98167 17.3197H23.5567L23.8733 13.773H6.10667L7.06333 24.5013H19.3583L18.9467 29.1013L14.99 30.1713H14.9867L11.0367 29.1047L10.7833 26.2763H7.22L7.71667 31.8463L14.9833 33.863L22.2617 31.8463L23.1483 21.9063L23.235 20.9547H10.305V20.953Z" fill="#5454D4"/>
</svg>
