<svg width="40" height="40" viewBox="0 0 40 40" fill="none" xmlns="http://www.w3.org/2000/svg">
<path d="M24.13 24.8052C22.877 24.9274 21.6147 24.6977 20.485 24.1419C20.229 23.9372 20.0176 23.6823 19.864 23.3927C19.7103 23.1032 19.6176 22.7853 19.5917 22.4585C19.5912 22.4097 19.5811 22.3613 19.5619 22.3164C19.5427 22.2715 19.5148 22.2308 19.4798 22.1967C19.4447 22.1626 19.4033 22.1358 19.3579 22.1178C19.3124 22.0998 19.2639 22.091 19.215 22.0919C18.6872 22.0865 18.1594 22.0865 17.6317 22.0919C17.5396 22.0825 17.4476 22.1098 17.3755 22.1678C17.3034 22.2258 17.2572 22.3099 17.2467 22.4019C17.2168 22.9749 17.3137 23.5475 17.5307 24.0788C17.7476 24.6101 18.0792 25.0869 18.5017 25.4752C19.5684 26.3082 20.8638 26.7961 22.215 26.8735C23.6229 27.0366 25.0477 26.9758 26.4367 26.6935C27.503 26.4947 28.4807 25.968 29.2333 25.1869C29.6495 24.6738 29.9284 24.0634 30.0439 23.413C30.1593 22.7626 30.1075 22.0934 29.8933 21.4685C29.7137 21.028 29.4355 20.6344 29.0802 20.3181C28.7248 20.0017 28.3017 19.771 27.8433 19.6435C25.71 18.8935 23.4033 18.9519 21.2267 18.3819C20.8483 18.2652 20.3867 18.1352 20.2183 17.7352C20.121 17.4537 20.1143 17.1488 20.1992 16.8633C20.2841 16.5778 20.4563 16.3261 20.6917 16.1435C21.3755 15.7526 22.1543 15.5587 22.9417 15.5835C24.0086 15.4835 25.0841 15.6377 26.08 16.0335C26.3794 16.2095 26.6369 16.4486 26.8346 16.7341C27.0323 17.0196 27.1655 17.3447 27.225 17.6869C27.2277 17.7881 27.2682 17.8846 27.3386 17.9574C27.4089 18.0302 27.504 18.074 27.605 18.0802C28.1283 18.0902 28.6517 18.0819 29.1767 18.0835C29.2675 18.0942 29.3591 18.0718 29.4347 18.0203C29.5104 17.9689 29.5649 17.8919 29.5883 17.8035C29.5929 17.0968 29.4127 16.4012 29.0657 15.7856C28.7187 15.1699 28.2169 14.6556 27.61 14.2935C25.9352 13.5203 24.0761 13.2355 22.2467 13.4719C20.9062 13.5271 19.6256 14.042 18.62 14.9302C18.1586 15.4279 17.8462 16.0451 17.7183 16.7116C17.5905 17.3781 17.6522 18.0671 17.8967 18.7002C18.087 19.1244 18.367 19.5023 18.7175 19.8079C19.0679 20.1134 19.4805 20.3394 19.9267 20.4702C22.055 21.2385 24.3867 20.9919 26.5333 21.6719C26.9533 21.8135 27.44 22.0319 27.5683 22.4969C27.6372 22.7761 27.632 23.0685 27.553 23.345C27.4741 23.6216 27.3242 23.8727 27.1183 24.0735C26.2252 24.6286 25.1785 24.8849 24.13 24.8052ZM33.8283 10.7302C29.675 8.3813 25.52 6.03408 21.3633 3.68853C20.9465 3.45541 20.4768 3.33301 19.9992 3.33301C19.5215 3.33301 19.0519 3.45541 18.635 3.68853L6.21667 10.7019C5.8138 10.921 5.47693 11.244 5.24101 11.6373C5.00509 12.0306 4.87872 12.4799 4.875 12.9385V27.0635C4.88182 27.5307 5.01494 27.9872 5.26025 28.3848C5.50555 28.7824 5.8539 29.1062 6.26833 29.3219C7.45667 29.9685 8.61167 30.6819 9.82333 31.2869C10.5221 31.6603 11.2982 31.866 12.0903 31.8877C12.8823 31.9094 13.6685 31.7465 14.3867 31.4119C14.9242 31.0753 15.3616 30.6007 15.6533 30.0376C15.945 29.4745 16.0802 28.8434 16.045 28.2102C16.0533 23.5485 16.045 18.8869 16.0483 14.2269C16.0566 14.1758 16.054 14.1236 16.0407 14.0737C16.0274 14.0237 16.0037 13.9772 15.9711 13.937C15.9385 13.8969 15.8978 13.8641 15.8517 13.8408C15.8055 13.8175 15.755 13.8042 15.7033 13.8019C15.1739 13.7958 14.6444 13.7958 14.115 13.8019C14.0662 13.7976 14.017 13.8037 13.9706 13.8198C13.9243 13.8358 13.8818 13.8613 13.846 13.8948C13.8102 13.9283 13.7818 13.9689 13.7627 14.014C13.7435 14.0592 13.7341 14.1078 13.735 14.1569C13.7283 18.7885 13.7367 23.4202 13.7317 28.0535C13.7326 28.3733 13.6357 28.6856 13.454 28.9487C13.2723 29.2118 13.0144 29.4129 12.715 29.5252C12.3704 29.6271 12.0083 29.6551 11.6521 29.6074C11.296 29.5598 10.954 29.4375 10.6483 29.2485L7.345 27.3819C7.27195 27.3474 7.21122 27.2914 7.17099 27.2214C7.13076 27.1513 7.11296 27.0707 7.12 26.9902V13.0119C7.11244 12.9213 7.13366 12.8306 7.18065 12.7528C7.22763 12.675 7.29798 12.614 7.38167 12.5785C11.5072 10.2541 15.6322 7.92797 19.7567 5.60019C19.8283 5.55103 19.9131 5.52472 20 5.52472C20.0869 5.52472 20.1717 5.55103 20.2433 5.60019L32.62 12.5769C32.7029 12.6132 32.7725 12.6745 32.8191 12.7521C32.8656 12.8297 32.8869 12.9199 32.88 13.0102V26.9902C32.887 27.0711 32.8695 27.1523 32.8296 27.223C32.7898 27.2938 32.7295 27.3509 32.6567 27.3869C28.5944 29.6846 24.5294 31.9791 20.4617 34.2702C20.2683 34.3769 20.0383 34.5519 19.8117 34.4202C18.745 33.8169 17.695 33.1902 16.6317 32.5819C16.5774 32.5402 16.5119 32.5157 16.4436 32.5116C16.3753 32.5074 16.3073 32.5238 16.2483 32.5585C15.7808 32.8327 15.2887 33.0626 14.7783 33.2452C14.5483 33.3385 14.265 33.3652 14.1067 33.5785C14.309 33.7979 14.554 33.9738 14.8267 34.0952L18.5533 36.2502C18.9643 36.5082 19.437 36.6513 19.922 36.6648C20.4071 36.6783 20.887 36.5616 21.3117 36.3269C25.4517 33.9935 29.5917 31.658 33.7317 29.3202C34.1455 29.1043 34.4934 28.7806 34.7386 28.3834C34.9839 27.9863 35.1173 27.5303 35.125 27.0635V12.9385C35.1211 12.4891 34.9993 12.0486 34.7718 11.6611C34.5442 11.2735 34.2189 10.9525 33.8283 10.7302Z" fill="#5454D4"/>
</svg>
