<svg width="40" height="40" viewBox="0 0 40 40" fill="none" xmlns="http://www.w3.org/2000/svg">
<path d="M40 19.482C40 16.832 36.6817 14.3203 31.5933 12.7637C32.7683 7.57866 32.2467 3.45199 29.9467 2.13033C29.3894 1.81819 28.7586 1.66108 28.12 1.67533V3.49199C28.495 3.49199 28.7967 3.56699 29.05 3.70533C30.1583 4.34199 30.64 6.76199 30.265 9.87699C30.175 10.6437 30.0283 11.4503 29.8483 12.2737C28.1444 11.8631 26.415 11.5663 24.6717 11.3853C23.6331 9.95247 22.5 8.59056 21.28 7.30866C23.9383 4.83866 26.4333 3.48533 28.13 3.48533V1.66699C25.8867 1.66699 22.9517 3.26533 19.9833 6.03699C17.0167 3.28366 14.08 1.70033 11.8383 1.70033V3.51699C13.5267 3.51699 16.03 4.86366 18.6883 7.31699C17.5467 8.51699 16.405 9.87699 15.32 11.3853C13.5731 11.5643 11.8406 11.8639 10.135 12.282C9.95475 11.5016 9.81291 10.7129 9.71 9.91866C9.32667 6.80199 9.8 4.38199 10.9017 3.73866C11.145 3.59199 11.4633 3.52533 11.8383 3.52533V1.70866C11.155 1.70866 10.5333 1.85533 9.99667 2.16366C7.705 3.48533 7.19167 7.60199 8.37333 12.772C3.30167 14.3387 0 16.8403 0 19.482C0 22.132 3.31833 24.6437 8.40667 26.1987C7.23167 31.3853 7.75333 35.512 10.0533 36.832C10.5833 37.142 11.2033 37.2887 11.8867 37.2887C14.13 37.2887 17.065 35.6903 20.0333 32.9187C23 35.6737 25.935 37.2553 28.1783 37.2553C28.8218 37.2689 29.4574 37.1113 30.02 36.7987C32.3117 35.4787 32.825 31.362 31.6433 26.192C36.6983 24.6353 40 22.1237 40 19.482ZM29.3833 14.0437C29.0666 15.1334 28.6996 16.2079 28.2833 17.2637C27.6019 15.9383 26.8538 14.6483 26.0417 13.3987C27.2 13.5703 28.3167 13.782 29.385 14.0437H29.3833ZM25.65 22.727C25.0395 23.7928 24.3839 24.832 23.685 25.842C21.2388 26.0576 18.7784 26.0604 16.3317 25.8503C14.9282 23.8456 13.7009 21.7233 12.6633 19.507C13.6993 17.2855 14.9214 15.1557 16.3167 13.1403C18.7623 12.9243 21.2221 12.9209 23.6683 13.1303C24.345 14.1003 25.0067 15.137 25.6417 16.2303C26.2617 17.297 26.825 18.3803 27.3383 19.4737C26.8193 20.5803 26.2561 21.6656 25.65 22.727ZM28.2833 21.667C28.7233 22.7587 29.1 23.852 29.4083 24.912C28.3417 25.1737 27.215 25.3937 26.05 25.5637C26.8587 24.3027 27.6041 23.0022 28.2833 21.667ZM20.0167 30.367C19.2583 29.5837 18.5 28.712 17.75 27.757C18.4833 27.7903 19.2333 27.8153 19.9917 27.8153C20.7583 27.8153 21.5167 27.7987 22.2583 27.757C21.525 28.712 20.7667 29.5837 20.0167 30.367ZM13.95 25.5637C12.8262 25.4008 11.7106 25.1862 10.6067 24.9203C10.9083 23.8687 11.2833 22.7837 11.7067 21.7003C12.0417 22.3503 12.3933 23.0037 12.7767 23.657C13.16 24.3087 13.55 24.9453 13.95 25.5637ZM19.975 8.59699C20.7333 9.38033 21.4917 10.252 22.2417 11.207C21.5083 11.1737 20.7583 11.1487 20 11.1487C19.2333 11.1487 18.475 11.1653 17.7333 11.207C18.4667 10.252 19.225 9.38033 19.975 8.59699ZM13.9417 13.4003C13.1331 14.6585 12.3877 15.9563 11.7083 17.2887C11.2804 16.2261 10.9049 15.1431 10.5833 14.0437C11.65 13.7903 12.7767 13.5703 13.9417 13.4003ZM6.56333 23.607C3.67667 22.377 1.81 20.762 1.81 19.482C1.81 18.202 3.67667 16.5787 6.56333 15.357C7.26333 15.0553 8.03 14.7853 8.82167 14.5337C9.28667 16.1303 9.89833 17.7937 10.655 19.4987C9.94061 21.1023 9.33643 22.7528 8.84667 24.4387C8.07242 24.1989 7.31039 23.9214 6.56333 23.607ZM10.95 35.257C9.84167 34.6237 9.36 32.2003 9.735 29.087C9.825 28.3203 9.97167 27.512 10.1517 26.6887C11.7483 27.0803 13.4933 27.382 15.3283 27.5787C16.367 29.0115 17.5 30.3734 18.72 31.6553C16.0617 34.1253 13.5667 35.4787 11.87 35.4787C11.5499 35.4822 11.2339 35.4066 10.95 35.2587V35.257ZM30.29 29.0453C30.6733 32.1603 30.2 34.582 29.0983 35.2253C28.855 35.372 28.5367 35.437 28.1617 35.437C26.4733 35.437 23.97 34.092 21.3117 31.637C22.5265 30.3604 23.652 29.0017 24.68 27.5703C26.4269 27.3914 28.1594 27.0918 29.865 26.6737C30.0533 27.497 30.1983 28.287 30.29 29.0453ZM33.4283 23.607C32.7283 23.9087 31.9617 24.1787 31.17 24.4303C30.6716 22.7359 30.0591 21.0771 29.3367 19.4653C30.0867 17.7703 30.6883 16.1153 31.145 14.5253C31.9217 14.7659 32.6865 15.0434 33.4367 15.357C36.3233 16.587 38.19 18.202 38.19 19.482C38.1817 20.762 36.315 22.3853 33.4283 23.607Z" fill="#5454D4"/>
<path d="M19.9918 23.2082C20.9802 23.2082 21.9281 22.8156 22.627 22.1167C23.3258 21.4178 23.7185 20.4699 23.7185 19.4815C23.7185 18.4932 23.3258 17.5453 22.627 16.8464C21.9281 16.1475 20.9802 15.7549 19.9918 15.7549C19.0034 15.7549 18.0555 16.1475 17.3567 16.8464C16.6578 17.5453 16.2651 18.4932 16.2651 19.4815C16.2651 20.4699 16.6578 21.4178 17.3567 22.1167C18.0555 22.8156 19.0034 23.2082 19.9918 23.2082Z" fill="#5454D4"/>
</svg>
