<svg width="28" height="28" viewBox="0 0 28 28" fill="none" xmlns="http://www.w3.org/2000/svg">
<path d="M6.268 28H0.463V9.306H6.268V28ZM3.362 6.756C1.506 6.756 0 5.218 0 3.362C0 2.47034 0.35421 1.6152 0.984707 0.984707C1.6152 0.35421 2.47034 0 3.362 0C4.25366 0 5.1088 0.35421 5.73929 0.984707C6.36979 1.6152 6.724 2.47034 6.724 3.362C6.724 5.218 5.218 6.756 3.362 6.756ZM27.994 28H22.202V18.9C22.202 16.731 22.158 13.95 19.184 13.95C16.166 13.95 15.703 16.306 15.703 18.744V28H9.904V9.306H15.471V11.856H15.552C16.327 10.387 18.22 8.837 21.044 8.837C26.919 8.837 27.999 12.706 27.999 17.731V28H27.994Z" fill="#E5E5E5"/>
</svg>
