<svg width="33" height="27" viewBox="0 0 33 27" fill="none" xmlns="http://www.w3.org/2000/svg">
<path d="M33 3.20726C31.7864 3.73448 30.4658 4.11392 29.1055 4.2617C30.5178 3.4167 31.5754 2.08173 32.0799 0.507265C30.7547 1.30124 29.3028 1.858 27.7888 2.15283C27.1561 1.47154 26.3908 0.928799 25.5406 0.558419C24.6904 0.188038 23.7737 -0.00204411 22.8474 1.6577e-05C19.0996 1.6577e-05 16.0856 3.05948 16.0856 6.81392C16.0856 7.34114 16.149 7.86836 16.2521 8.3756C10.6404 8.08004 5.6355 5.38004 2.30814 1.24617C1.70185 2.28909 1.38414 3.47657 1.38805 4.68507C1.38805 7.04957 2.58178 9.13448 4.40211 10.3607C3.32936 10.3181 2.28173 10.0212 1.34443 9.49395V9.57782C1.34443 12.8889 3.66843 15.6328 6.76577 16.2639C6.18421 16.416 5.58596 16.4939 4.9851 16.4956C4.54489 16.4956 4.12847 16.4516 3.70809 16.3917C4.56472 19.0917 7.05925 21.0528 10.0297 21.1167C7.70568 22.95 4.79474 24.0284 1.63394 24.0284C1.06682 24.0284 0.543324 24.0084 0 23.9445C2.9982 25.8817 6.55558 27 10.3866 27C22.8236 27 29.629 16.6234 29.629 7.61673C29.629 7.32117 29.629 7.0256 29.6092 6.73004C30.9258 5.75948 32.0799 4.55726 33 3.20726Z" fill="#E5E5E5"/>
</svg>
