<svg width="64" height="64" viewBox="0 0 64 64" fill="none" xmlns="http://www.w3.org/2000/svg">
<circle cx="32" cy="32" r="31.5" stroke="#5454D4"/>
<g clip-path="url(#clip0_652_386)">
<path d="M24.5034 12H28.8001V13.7967H26.3001V15.5933H28.8001V17.39H24.5034V12ZM29.6584 12H33.9568V13.5633H31.4568V13.875H33.9568V17.4683H29.6584V15.8283H32.1584V15.515H29.6584V12ZM34.8168 12H39.1118V13.5633H36.6118V13.875H39.1118V17.4683H34.8168V15.8283H37.3168V15.515H34.8168V12Z" fill="#5454D4"/>
<path fill-rule="evenodd" clip-rule="evenodd" d="M31.985 51.9997L20.4117 48.7863L17 19.8613H47L43.59 48.783L31.985 51.9997ZM23.745 32.9547L24.0633 36.5013H36.3583L35.9467 41.1013L31.99 42.1713H31.9867L28.0367 41.1047L27.7833 38.2763H24.2217L24.7183 43.8463L31.985 45.863L39.2633 43.8463L40.15 33.9063L40.2367 32.9547L40.8767 25.773H23.1067L23.43 29.3213H36.99L36.6667 32.9547H23.745Z" fill="#5454D4"/>
</g>
<defs>
<clipPath id="clip0_652_386">
<rect width="40" height="40" fill="white" transform="translate(12 12)"/>
</clipPath>
</defs>
</svg>
