<svg width="64" height="64" viewBox="0 0 64 64" fill="none" xmlns="http://www.w3.org/2000/svg">
<circle cx="32" cy="32" r="31.5" stroke="#5454D4"/>
<path d="M27.1562 42.7292C27.1562 43.875 26.349 44.4479 24.7344 44.4479C22.8767 44.4479 21.9479 43.901 21.9479 42.8073C21.9479 41.6962 22.7986 41.1406 24.5 41.1406C26.2708 41.1406 27.1562 41.6701 27.1562 42.7292ZM26.2188 30.5938C26.2188 32.0694 25.5764 32.8073 24.2917 32.8073C22.9549 32.8073 22.2865 32.0781 22.2865 30.6198C22.2865 29.0573 22.9549 28.276 24.2917 28.276C24.9167 28.276 25.3941 28.4974 25.724 28.9401C26.0538 29.3828 26.2188 29.934 26.2188 30.5938ZM30.5417 28.6406V25.3854C29.1875 25.8889 28.0156 26.1406 27.026 26.1406C26.158 25.6372 25.2031 25.3854 24.1615 25.3854C22.6684 25.3854 21.4097 25.8802 20.3854 26.8698C19.3611 27.8594 18.849 29.1007 18.849 30.5938C18.849 31.4618 19.105 32.3472 19.6172 33.25C20.1293 34.1528 20.7674 34.7344 21.5312 34.9948V35.0729C20.8715 35.3681 20.5417 36.1059 20.5417 37.2865C20.5417 38.2066 20.8976 38.875 21.6094 39.2917V39.3698C19.6476 40.0122 18.6667 41.2188 18.6667 42.9896C18.6667 43.7708 18.8403 44.4523 19.1875 45.0339C19.5347 45.6155 20.0035 46.0582 20.5938 46.362C21.184 46.6658 21.809 46.8872 22.4688 47.026C23.1285 47.1649 23.8316 47.2344 24.5781 47.2344C28.467 47.2344 30.4115 45.6024 30.4115 42.3385C30.4115 41.1753 29.9948 40.316 29.1615 39.7604C28.3281 39.2049 27.2344 38.8056 25.8802 38.5625C25.4115 38.4757 24.9644 38.2977 24.5391 38.0286C24.1137 37.7595 23.901 37.4167 23.901 37C23.901 36.2361 24.3264 35.7847 25.1771 35.6458C26.5139 35.3854 27.5729 34.7778 28.3542 33.8229C29.1354 32.8681 29.526 31.7049 29.526 30.3333C29.526 29.9167 29.4392 29.4653 29.2656 28.9792C29.908 28.8229 30.3333 28.7101 30.5417 28.6406ZM32.0781 39.5521H35.6458C35.6111 39.0833 35.5938 38.3715 35.5938 37.4167V27.3385C35.5938 26.5399 35.6111 25.941 35.6458 25.5417H32.0781C32.1302 25.941 32.1562 26.5573 32.1562 27.3906V37.599C32.1562 38.467 32.1302 39.1181 32.0781 39.5521ZM45.3333 39.1354V35.9844C44.8125 36.349 44.2222 36.5312 43.5625 36.5312C42.6424 36.5312 42.1823 35.8194 42.1823 34.3958V28.5365H43.5365C43.6927 28.5365 43.9227 28.5451 44.2266 28.5625C44.5304 28.5799 44.7604 28.5885 44.9167 28.5885V25.5417H42.1823C42.1823 24.1181 42.2083 23.2326 42.2604 22.8854H38.6146C38.684 23.3021 38.7188 23.7795 38.7188 24.3177V25.5417H37.1562V28.5885C37.7812 28.5365 38.1024 28.5104 38.1198 28.5104C38.1719 28.5104 38.2674 28.5148 38.4062 28.5234C38.5451 28.5321 38.6493 28.5365 38.7188 28.5365V28.5885H38.6667V34.2396C38.6667 34.8819 38.6884 35.4375 38.7318 35.9062C38.7752 36.375 38.875 36.8654 39.0312 37.3776C39.1875 37.8898 39.4002 38.3108 39.6693 38.6406C39.9384 38.9705 40.316 39.2396 40.8021 39.4479C41.2882 39.6562 41.8611 39.7604 42.5208 39.7604C43.6319 39.7604 44.5694 39.5521 45.3333 39.1354ZM36.0625 20.75C36.0625 20.125 35.8542 19.5738 35.4375 19.0964C35.0208 18.6189 34.5 18.3802 33.875 18.3802C33.25 18.3802 32.7248 18.6146 32.2995 19.0833C31.8741 19.5521 31.6615 20.1076 31.6615 20.75C31.6615 21.375 31.8785 21.9175 32.3125 22.3776C32.7465 22.8377 33.2674 23.0677 33.875 23.0677C34.4826 23.0677 34.9991 22.8333 35.4245 22.3646C35.8498 21.8958 36.0625 21.3576 36.0625 20.75ZM52 19.5V44.5C52 46.566 51.2665 48.3325 49.7995 49.7995C48.3325 51.2665 46.566 52 44.5 52H19.5C17.434 52 15.6675 51.2665 14.2005 49.7995C12.7335 48.3325 12 46.566 12 44.5V19.5C12 17.434 12.7335 15.6675 14.2005 14.2005C15.6675 12.7335 17.434 12 19.5 12H44.5C46.566 12 48.3325 12.7335 49.7995 14.2005C51.2665 15.6675 52 17.434 52 19.5Z" fill="#5454D4"/>
</svg>
