<svg width="64" height="64" viewBox="0 0 64 64" fill="none" xmlns="http://www.w3.org/2000/svg">
<circle cx="32" cy="32" r="31.5" stroke="#5454D4"/>
<path d="M20.4668 12H22.2701V13.7817H23.9201V12H25.7235V17.3933H23.9201V15.5883H22.2701V17.3933H20.4685V12H20.4668ZM28.0935 13.7883H26.5068V12H31.4851V13.7883H29.8968V17.3933H28.0935V13.7883V13.7883ZM32.2751 12H34.1551L35.3118 13.895L36.4668 12H38.3468V17.3933H36.5518V14.72L35.3118 16.6383H35.2801L34.0385 14.7217V17.3933H32.2751V12V12ZM39.2435 12H41.0485V15.6117H43.5818V17.395H39.2435V12V12Z" fill="#5454D4"/>
<path fill-rule="evenodd" clip-rule="evenodd" d="M20.41 48.7863L17 19.8613H47L43.5883 48.783L31.9833 51.9997L20.41 48.7863ZM27.305 32.953L26.9817 29.3197H40.5567L40.8733 25.773H23.1067L24.0633 36.5013H36.3583L35.9467 41.1013L31.99 42.1713H31.9867L28.0367 41.1047L27.7833 38.2763H24.22L24.7167 43.8463L31.9833 45.863L39.2617 43.8463L40.1483 33.9063L40.235 32.9547H27.305V32.953Z" fill="#5454D4"/>
</svg>
