<svg width="64" height="64" viewBox="0 0 64 64" fill="none" xmlns="http://www.w3.org/2000/svg">
<circle cx="32" cy="32" r="31.5" stroke="#5454D4"/>
<path d="M36.13 36.8052C34.877 36.9274 33.6147 36.6977 32.485 36.1419C32.229 35.9372 32.0176 35.6823 31.864 35.3927C31.7103 35.1032 31.6176 34.7853 31.5917 34.4585C31.5912 34.4097 31.5811 34.3613 31.5619 34.3164C31.5427 34.2715 31.5148 34.2308 31.4798 34.1967C31.4447 34.1626 31.4033 34.1358 31.3579 34.1178C31.3124 34.0998 31.2639 34.091 31.215 34.0919C30.6872 34.0865 30.1594 34.0865 29.6317 34.0919C29.5396 34.0825 29.4476 34.1098 29.3755 34.1678C29.3034 34.2258 29.2572 34.3099 29.2467 34.4019C29.2168 34.9749 29.3137 35.5475 29.5307 36.0788C29.7476 36.6101 30.0792 37.0869 30.5017 37.4752C31.5684 38.3082 32.8638 38.7961 34.215 38.8735C35.6229 39.0366 37.0477 38.9758 38.4367 38.6935C39.503 38.4947 40.4807 37.968 41.2333 37.1869C41.6495 36.6738 41.9284 36.0634 42.0439 35.413C42.1593 34.7626 42.1075 34.0934 41.8933 33.4685C41.7137 33.028 41.4355 32.6344 41.0802 32.3181C40.7248 32.0017 40.3017 31.771 39.8433 31.6435C37.71 30.8935 35.4033 30.9519 33.2267 30.3819C32.8483 30.2652 32.3867 30.1352 32.2183 29.7352C32.121 29.4537 32.1143 29.1488 32.1992 28.8633C32.2841 28.5778 32.4563 28.3261 32.6917 28.1435C33.3755 27.7526 34.1543 27.5587 34.9417 27.5835C36.0086 27.4835 37.0841 27.6377 38.08 28.0335C38.3794 28.2095 38.6369 28.4486 38.8346 28.7341C39.0323 29.0196 39.1655 29.3447 39.225 29.6869C39.2277 29.7881 39.2682 29.8846 39.3386 29.9574C39.4089 30.0302 39.504 30.074 39.605 30.0802C40.1283 30.0902 40.6517 30.0819 41.1767 30.0835C41.2675 30.0942 41.3591 30.0718 41.4347 30.0203C41.5104 29.9689 41.5649 29.8919 41.5883 29.8035C41.5929 29.0968 41.4127 28.4012 41.0657 27.7856C40.7187 27.1699 40.2169 26.6556 39.61 26.2935C37.9352 25.5203 36.0761 25.2355 34.2467 25.4719C32.9062 25.5271 31.6256 26.042 30.62 26.9302C30.1586 27.4279 29.8462 28.0451 29.7183 28.7116C29.5905 29.3781 29.6522 30.0671 29.8967 30.7002C30.087 31.1244 30.367 31.5023 30.7175 31.8079C31.0679 32.1134 31.4805 32.3394 31.9267 32.4702C34.055 33.2385 36.3867 32.9919 38.5333 33.6719C38.9533 33.8135 39.44 34.0319 39.5683 34.4969C39.6372 34.7761 39.632 35.0685 39.553 35.345C39.4741 35.6216 39.3242 35.8727 39.1183 36.0735C38.2252 36.6286 37.1785 36.8849 36.13 36.8052ZM45.8283 22.7302C41.675 20.3813 37.52 18.0341 33.3633 15.6885C32.9465 15.4554 32.4768 15.333 31.9992 15.333C31.5215 15.333 31.0519 15.4554 30.635 15.6885L18.2167 22.7019C17.8138 22.921 17.4769 23.244 17.241 23.6373C17.0051 24.0306 16.8787 24.4799 16.875 24.9385V39.0635C16.8818 39.5307 17.0149 39.9872 17.2602 40.3848C17.5056 40.7824 17.8539 41.1062 18.2683 41.3219C19.4567 41.9685 20.6117 42.6819 21.8233 43.2869C22.5221 43.6603 23.2982 43.866 24.0903 43.8877C24.8823 43.9094 25.6685 43.7465 26.3867 43.4119C26.9242 43.0753 27.3616 42.6007 27.6533 42.0376C27.945 41.4745 28.0802 40.8434 28.045 40.2102C28.0533 35.5485 28.045 30.8869 28.0483 26.2269C28.0566 26.1758 28.054 26.1236 28.0407 26.0737C28.0274 26.0237 28.0037 25.9772 27.9711 25.937C27.9385 25.8969 27.8978 25.8641 27.8517 25.8408C27.8055 25.8175 27.755 25.8042 27.7033 25.8019C27.1739 25.7958 26.6444 25.7958 26.115 25.8019C26.0662 25.7976 26.017 25.8037 25.9706 25.8198C25.9243 25.8358 25.8818 25.8613 25.846 25.8948C25.8102 25.9283 25.7818 25.9689 25.7627 26.014C25.7435 26.0592 25.7341 26.1078 25.735 26.1569C25.7283 30.7885 25.7367 35.4202 25.7317 40.0535C25.7326 40.3733 25.6357 40.6856 25.454 40.9487C25.2723 41.2118 25.0144 41.4129 24.715 41.5252C24.3704 41.6271 24.0083 41.6551 23.6521 41.6074C23.296 41.5598 22.954 41.4375 22.6483 41.2485L19.345 39.3819C19.272 39.3474 19.2112 39.2914 19.171 39.2214C19.1308 39.1513 19.113 39.0707 19.12 38.9902V25.0119C19.1124 24.9213 19.1337 24.8306 19.1806 24.7528C19.2276 24.675 19.298 24.614 19.3817 24.5785C23.5072 22.2541 27.6322 19.928 31.7567 17.6002C31.8283 17.551 31.9131 17.5247 32 17.5247C32.0869 17.5247 32.1717 17.551 32.2433 17.6002L44.62 24.5769C44.7029 24.6132 44.7725 24.6745 44.8191 24.7521C44.8656 24.8297 44.8869 24.9199 44.88 25.0102V38.9902C44.887 39.0711 44.8695 39.1523 44.8296 39.223C44.7898 39.2938 44.7295 39.3509 44.6567 39.3869C40.5944 41.6846 36.5294 43.9791 32.4617 46.2702C32.2683 46.3769 32.0383 46.5519 31.8117 46.4202C30.745 45.8169 29.695 45.1902 28.6317 44.5819C28.5774 44.5402 28.5119 44.5157 28.4436 44.5116C28.3753 44.5074 28.3073 44.5238 28.2483 44.5585C27.7808 44.8327 27.2887 45.0626 26.7783 45.2452C26.5483 45.3385 26.265 45.3652 26.1067 45.5785C26.309 45.7979 26.554 45.9738 26.8267 46.0952L30.5533 48.2502C30.9643 48.5082 31.437 48.6513 31.922 48.6648C32.4071 48.6783 32.887 48.5616 33.3117 48.3269C37.4517 45.9935 41.5917 43.658 45.7317 41.3202C46.1455 41.1043 46.4934 40.7806 46.7386 40.3834C46.9839 39.9863 47.1173 39.5303 47.125 39.0635V24.9385C47.1211 24.4891 46.9993 24.0486 46.7718 23.6611C46.5442 23.2735 46.2189 22.9525 45.8283 22.7302Z" fill="#5454D4"/>
</svg>
