<svg width="363" height="270" viewBox="0 0 363 270" fill="none" xmlns="http://www.w3.org/2000/svg">
<path d="M362.015 237.048H0V237.229H362.015V237.048Z" fill="#E0E0E0"/>
<path d="M273.437 244.715H248.531V244.896H273.437V244.715Z" fill="#E0E0E0"/>
<path d="M80.3961 244.802H66.3789V244.983H80.3961V244.802Z" fill="#E0E0E0"/>
<path d="M181.732 244.382H153.321V244.563H181.732V244.382Z" fill="#E0E0E0"/>
<path d="M152.596 241.805H139.897V241.986H152.596V241.805Z" fill="#E0E0E0"/>
<path d="M307.395 241.898H269.028V242.079H307.395V241.898Z" fill="#E0E0E0"/>
<path d="M171.596 204.756H31.7925C30.6973 204.754 29.6476 204.318 28.8739 203.542C28.1001 202.767 27.6655 201.717 27.6655 200.622V4.09801C27.6751 3.00909 28.1138 1.9679 28.8866 1.2006C29.6593 0.433302 30.7035 0.00186538 31.7925 0H171.596C172.692 0 173.744 0.435568 174.519 1.21088C175.294 1.9862 175.73 3.03775 175.73 4.13421V200.622C175.73 201.718 175.294 202.77 174.519 203.545C173.744 204.32 172.692 204.756 171.596 204.756V204.756ZM31.7925 0.144807C30.7453 0.146725 29.7416 0.564067 29.0018 1.30523C28.262 2.04639 27.8465 3.05081 27.8465 4.09801V200.622C27.8465 201.669 28.262 202.673 29.0018 203.414C29.7416 204.156 30.7453 204.573 31.7925 204.575H171.596C172.643 204.573 173.648 204.156 174.389 203.415C175.13 202.674 175.547 201.669 175.549 200.622V4.09801C175.547 3.05015 175.13 2.04574 174.389 1.30479C173.648 0.563832 172.643 0.146721 171.596 0.144807H31.7925Z" fill="#E0E0E0"/>
<path d="M328.21 204.756H188.4C187.304 204.754 186.254 204.318 185.479 203.543C184.704 202.768 184.268 201.717 184.266 200.622V4.09801C184.277 3.00843 184.717 1.96725 185.491 1.20015C186.265 0.433049 187.31 0.00184504 188.4 0H328.21C329.298 0.00376821 330.34 0.436047 331.111 1.20314C331.883 1.97024 332.32 3.01034 332.33 4.09801V200.622C332.33 201.716 331.896 202.765 331.124 203.54C330.352 204.315 329.304 204.752 328.21 204.756V204.756ZM188.4 0.144807C187.352 0.146721 186.348 0.563832 185.607 1.30479C184.866 2.04574 184.449 3.05015 184.447 4.09801V200.622C184.449 201.669 184.866 202.674 185.607 203.415C186.348 204.156 187.352 204.573 188.4 204.575H328.21C329.258 204.573 330.262 204.156 331.003 203.415C331.744 202.674 332.161 201.669 332.163 200.622V4.09801C332.161 3.05015 331.744 2.04574 331.003 1.30479C330.262 0.563832 329.258 0.146721 328.21 0.144807H188.4Z" fill="#E0E0E0"/>
<path d="M318.074 146.421C309.168 132.86 317.299 118.285 315.945 103.196C314.591 88.1077 300.255 84.8206 302.97 72.0632C306.113 57.235 297.736 43.0078 288.244 43.0078C278.751 43.0078 270.382 57.1988 273.524 72.0414C276.239 84.8206 261.94 88.1149 260.549 103.175C259.159 118.235 267.326 132.86 258.413 146.399C249.501 159.939 251.847 177.916 256.864 186.829C258.199 189.194 259.808 191.393 261.657 193.382C265.058 197.032 269.173 199.943 273.748 201.934C278.323 203.925 283.258 204.952 288.247 204.952C293.236 204.952 298.172 203.925 302.746 201.934C307.321 199.943 311.437 197.032 314.837 193.382C316.682 191.391 318.288 189.192 319.623 186.829C324.648 177.938 326.986 160.011 318.074 146.421Z" fill="#E0E0E0"/>
<path d="M288.244 156.709C288.835 156.709 289.421 156.825 289.967 157.052C290.513 157.278 291.01 157.61 291.428 158.028C291.846 158.446 292.178 158.943 292.404 159.489C292.631 160.035 292.747 160.621 292.747 161.212V237.047H283.74V161.212C283.74 160.621 283.857 160.035 284.083 159.489C284.309 158.943 284.641 158.446 285.059 158.028C285.477 157.61 285.974 157.278 286.52 157.052C287.067 156.825 287.652 156.709 288.244 156.709V156.709Z" fill="#F0F0F0"/>
<path d="M231.625 237.047H219.381V161.219C219.385 159.594 220.032 158.037 221.182 156.887C222.331 155.738 223.889 155.091 225.514 155.087V155.087C227.139 155.091 228.697 155.738 229.846 156.887C230.995 158.037 231.643 159.594 231.646 161.219L231.625 237.047Z" fill="#E0E0E0"/>
<path d="M225.492 216.594C246.353 216.594 263.265 199.683 263.265 178.822C263.265 157.96 246.353 141.049 225.492 141.049C204.631 141.049 187.719 157.96 187.719 178.822C187.719 199.683 204.631 216.594 225.492 216.594Z" fill="#F0F0F0"/>
<path d="M269.878 167.486C271.86 159.507 266.998 151.432 259.019 149.45C251.04 147.469 242.966 152.33 240.984 160.309C239.002 168.288 243.863 176.363 251.842 178.345C259.821 180.326 267.896 175.465 269.878 167.486Z" fill="#F0F0F0"/>
<path d="M203.634 156.499C204.417 151.696 201.157 147.168 196.354 146.386C191.551 145.604 187.023 148.863 186.241 153.666C185.458 158.47 188.718 162.997 193.521 163.78C198.324 164.562 202.852 161.302 203.634 156.499Z" fill="#F0F0F0"/>
<path d="M204.524 156.709C207.939 156.709 210.707 153.941 210.707 150.526C210.707 147.111 207.939 144.343 204.524 144.343C201.109 144.343 198.341 147.111 198.341 150.526C198.341 153.941 201.109 156.709 204.524 156.709Z" fill="#F0F0F0"/>
<path d="M147.702 191.788C141.828 192.663 136.215 194.805 131.252 198.066C131.209 192.331 130.159 186.894 127.465 182.499C123.367 186.488 120.044 191.658 117.329 197.219C116.337 186.8 113.593 176.663 107.518 170.241C98.4173 175.968 93.7256 185.511 91.4956 195.618C87.8115 188.803 82.4641 183.03 75.9506 178.835C70.3828 184.7 68.6017 192.809 68.7538 201.121C62.4257 193.75 55.4026 188.002 48.5533 187.328C46.8663 198.978 50.4575 209.969 55.0262 218.657C57.9923 224.232 62.4234 228.891 67.842 232.133C73.2607 235.375 79.4613 237.077 85.7757 237.055H115.526C128.204 237.055 140.092 230.292 146.037 219.092C149.795 211.996 151.59 202.866 147.702 191.788Z" fill="#E0E0E0"/>
<path d="M139.202 41.3713C142.873 30.605 139.926 22.9375 130.97 22.9375C125.337 22.9375 118.35 25.9567 111.544 30.8656C110.777 28.0636 108.612 26.3911 105.129 26.3911C98.9966 26.3911 90.5471 31.5752 83.9222 38.8879C82.057 37.1158 79.5877 36.1193 77.015 36.1004C71.1431 35.7673 64.0404 38.7503 57.8644 43.5941C57.5549 43.161 57.1464 42.8081 56.6728 42.565C56.1992 42.322 55.6744 42.1957 55.142 42.1967C51.7608 42.0085 47.1777 45.0204 44.9115 48.9157C44.7739 49.1546 44.6508 49.3936 44.5205 49.6397H140.983C141.273 46.2368 140.672 43.3986 139.202 41.3713Z" fill="#F0F0F0"/>
<path d="M139.499 106.744C141.295 101.487 139.868 97.7441 135.481 97.7441C132.722 97.7441 129.312 99.1922 125.989 101.618C125.81 100.942 125.396 100.352 124.821 99.9542C124.247 99.5561 123.549 99.3758 122.853 99.4456C119.863 99.4456 115.736 101.98 112.493 105.556C111.583 104.688 110.376 104.201 109.119 104.195C106.223 104.029 102.783 105.484 99.7642 107.852C99.6178 107.642 99.4242 107.47 99.1991 107.35C98.9739 107.229 98.7235 107.163 98.4682 107.157C96.8174 107.062 94.5801 108.532 93.4723 110.436L93.2769 110.784H140.397C140.594 109.373 140.275 107.938 139.499 106.744V106.744Z" fill="#F0F0F0"/>
<path d="M248.176 66.966C247.804 66.9138 247.429 66.8872 247.054 66.8864C247.401 61.6372 245.396 58.2777 241.102 58.2777C238.011 58.2777 234.21 60.0298 230.343 62.9911C231.451 52.7968 227.903 46.1719 219.866 46.1719C213.394 46.1719 205.19 50.5161 197.088 57.5102C196.364 53.5135 193.99 51.1098 189.979 51.1098C182.934 51.1098 172.92 58.5238 164.891 68.9788C163.976 67.7733 162.802 66.7879 161.457 66.095C160.111 65.4022 158.628 65.0195 157.115 64.975C150.41 64.5043 142.077 68.7616 134.67 75.6978C134.4 75.1129 133.971 74.6159 133.432 74.2637C132.893 73.9115 132.266 73.7185 131.622 73.7068C127.951 73.4461 122.933 77.2762 119.958 82.3951H254.077C257.226 74.6335 254.721 67.8421 248.176 66.966Z" fill="#F0F0F0"/>
<path d="M181.008 269.745C258.539 269.745 321.39 266.075 321.39 261.549C321.39 257.022 258.539 253.353 181.008 253.353C103.477 253.353 40.6255 257.022 40.6255 261.549C40.6255 266.075 103.477 269.745 181.008 269.745Z" fill="#F5F5F5"/>
<path d="M35.376 69.1885L200.433 92.9512L222.581 115.302L35.376 69.1885Z" fill="#2D69E7"/>
<path opacity="0.6" d="M35.376 69.1885L200.433 92.9512L222.581 115.302L35.376 69.1885Z" fill="white"/>
<path d="M35.376 69.1885L200.433 92.9512L192.773 125.272L35.376 69.1885Z" fill="#2D69E7"/>
<path opacity="0.2" d="M35.376 69.1885L200.433 92.9512L192.773 125.272L35.376 69.1885Z" fill="black"/>
<path d="M189.385 31.7699L198.964 76.6598C199.213 77.832 198.987 79.0551 198.335 80.0609C197.684 81.0667 196.66 81.773 195.488 82.0248L109.995 100.27C108.823 100.518 107.601 100.291 106.595 99.6396C105.59 98.9884 104.883 97.9657 104.63 96.7951L95.0436 51.9052C94.7966 50.7321 95.0243 49.509 95.677 48.5035C96.3297 47.498 97.3542 46.792 98.5261 46.5401L184.02 28.2945C185.193 28.0475 186.416 28.2753 187.421 28.928C188.427 29.5807 189.133 30.6051 189.385 31.7771V31.7699Z" fill="#2D69E7"/>
<path opacity="0.4" d="M189.385 31.7699L198.964 76.6598C199.213 77.832 198.987 79.0551 198.335 80.0609C197.684 81.0667 196.66 81.773 195.488 82.0248L109.995 100.27C108.823 100.518 107.601 100.291 106.595 99.6396C105.59 98.9884 104.883 97.9657 104.63 96.7951L95.0436 51.9052C94.7966 50.7321 95.0243 49.509 95.677 48.5035C96.3297 47.498 97.3542 46.792 98.5261 46.5401L184.02 28.2945C185.193 28.0475 186.416 28.2753 187.421 28.928C188.427 29.5807 189.133 30.6051 189.385 31.7771V31.7699Z" fill="black"/>
<path d="M187.278 28.8303L158.715 63.8951C156.066 67.1461 152.386 69.3954 148.285 70.271C144.184 71.1465 139.907 70.5958 136.161 68.7099L95.7676 48.3647C96.4211 47.4259 97.4074 46.771 98.5261 46.5329L184.02 28.2873C185.135 28.0499 186.299 28.2439 187.278 28.8303V28.8303Z" fill="#2D69E7"/>
<path d="M35.376 69.1885L171.515 101.545L192.773 125.272L35.376 69.1885Z" fill="#2D69E7"/>
<path opacity="0.6" d="M35.376 69.1885L171.515 101.545L192.773 125.272L35.376 69.1885Z" fill="white"/>
<path d="M85.0368 100.375L84.6709 101L99.8209 109.874L100.187 109.249L85.0368 100.375Z" fill="#2D69E7"/>
<path d="M106.876 113.162L106.51 113.787L111.958 116.978L112.323 116.353L106.876 113.162Z" fill="#2D69E7"/>
<path d="M35.376 69.1885L171.515 101.545L145.052 133.439L35.376 69.1885Z" fill="#2D69E7"/>
<path d="M217.47 144.994C217.287 144.994 217.105 144.96 216.934 144.893L194.764 136.117C194.41 135.975 194.126 135.697 193.975 135.346C193.824 134.994 193.818 134.598 193.959 134.242C194.099 133.886 194.375 133.601 194.725 133.448C195.075 133.294 195.472 133.286 195.829 133.424L218.006 142.199C218.32 142.323 218.58 142.553 218.743 142.849C218.905 143.144 218.959 143.487 218.896 143.819C218.832 144.15 218.655 144.449 218.395 144.663C218.134 144.878 217.807 144.995 217.47 144.994V144.994Z" fill="#2D69E7"/>
<path opacity="0.3" d="M217.47 144.994C217.287 144.994 217.105 144.96 216.934 144.893L194.764 136.117C194.41 135.975 194.126 135.697 193.975 135.346C193.824 134.994 193.818 134.598 193.959 134.242C194.099 133.886 194.375 133.601 194.725 133.448C195.075 133.294 195.472 133.286 195.829 133.424L218.006 142.199C218.32 142.323 218.58 142.553 218.743 142.849C218.905 143.144 218.959 143.487 218.896 143.819C218.832 144.15 218.655 144.449 218.395 144.663C218.134 144.878 217.807 144.995 217.47 144.994V144.994Z" fill="black"/>
<path d="M216.159 132.28C215.977 132.279 215.798 132.242 215.631 132.172L203.72 127.429C203.542 127.36 203.38 127.257 203.242 127.124C203.104 126.992 202.993 126.834 202.917 126.659C202.84 126.484 202.799 126.296 202.796 126.105C202.792 125.914 202.827 125.724 202.897 125.547C202.967 125.369 203.072 125.207 203.205 125.07C203.338 124.933 203.496 124.824 203.672 124.748C203.847 124.673 204.036 124.633 204.227 124.631C204.418 124.629 204.607 124.664 204.785 124.736L216.695 129.456C217.052 129.597 217.338 129.873 217.492 130.225C217.645 130.576 217.653 130.974 217.513 131.332C217.411 131.609 217.227 131.849 216.985 132.018C216.743 132.188 216.455 132.279 216.159 132.28Z" fill="#2D69E7"/>
<path opacity="0.5" d="M216.159 132.28C215.977 132.279 215.798 132.242 215.631 132.172L203.72 127.429C203.542 127.36 203.38 127.257 203.242 127.124C203.104 126.992 202.993 126.834 202.917 126.659C202.84 126.484 202.799 126.296 202.796 126.105C202.792 125.914 202.827 125.724 202.897 125.547C202.967 125.369 203.072 125.207 203.205 125.07C203.338 124.933 203.496 124.824 203.672 124.748C203.847 124.673 204.036 124.633 204.227 124.631C204.418 124.629 204.607 124.664 204.785 124.736L216.695 129.456C217.052 129.597 217.338 129.873 217.492 130.225C217.645 130.576 217.653 130.974 217.513 131.332C217.411 131.609 217.227 131.849 216.985 132.018C216.743 132.188 216.455 132.279 216.159 132.28Z" fill="white"/>
<path d="M191.26 144.806C191.079 144.804 190.9 144.77 190.731 144.705L169.104 136.118C168.926 136.049 168.764 135.945 168.626 135.813C168.488 135.681 168.378 135.523 168.301 135.348C168.225 135.173 168.183 134.984 168.18 134.793C168.176 134.603 168.211 134.413 168.281 134.235C168.351 134.058 168.456 133.896 168.589 133.759C168.722 133.622 168.881 133.512 169.056 133.437C169.232 133.362 169.42 133.322 169.611 133.319C169.802 133.317 169.992 133.353 170.169 133.424L191.796 141.982C192.109 142.106 192.37 142.336 192.532 142.632C192.695 142.927 192.749 143.27 192.686 143.602C192.622 143.933 192.445 144.232 192.185 144.446C191.924 144.661 191.597 144.778 191.26 144.777V144.806Z" fill="#2D69E7"/>
<path opacity="0.3" d="M191.26 144.806C191.079 144.804 190.9 144.77 190.731 144.705L169.104 136.118C168.926 136.049 168.764 135.945 168.626 135.813C168.488 135.681 168.378 135.523 168.301 135.348C168.225 135.173 168.183 134.984 168.18 134.793C168.176 134.603 168.211 134.413 168.281 134.235C168.351 134.058 168.456 133.896 168.589 133.759C168.722 133.622 168.881 133.512 169.056 133.437C169.232 133.362 169.42 133.322 169.611 133.319C169.802 133.317 169.992 133.353 170.169 133.424L191.796 141.982C192.109 142.106 192.37 142.336 192.532 142.632C192.695 142.927 192.749 143.27 192.686 143.602C192.622 143.933 192.445 144.232 192.185 144.446C191.924 144.661 191.597 144.778 191.26 144.777V144.806Z" fill="black"/>
<path d="M269.557 79.5127C271.475 83.2559 273.235 87.0064 274.907 90.8438C276.58 94.6811 278.136 98.5692 279.497 102.645L279.99 104.188C280.077 104.463 280.2 104.912 280.272 105.23C280.345 105.549 280.41 105.911 280.446 106.215C280.612 107.383 280.696 108.561 280.699 109.741C280.71 111.917 280.609 114.092 280.395 116.257C279.991 120.449 279.333 124.613 278.426 128.725L274.451 128.283C274.4 124.207 274.364 120.087 274.219 116.069C274.154 114.071 274.038 112.065 273.836 110.183C273.744 109.299 273.599 108.421 273.401 107.554C273.365 107.352 273.307 107.2 273.264 107.033C273.22 106.867 273.177 106.809 273.104 106.591L272.554 105.223C271.041 101.559 269.339 97.8669 267.602 94.1888L262.345 83.1546L269.557 79.5127Z" fill="#E4897B"/>
<path d="M274.509 127.009L272.655 130.477L278.578 132.128C278.578 132.128 279.707 129.34 278.361 127.139L274.509 127.009Z" fill="#E4897B"/>
<path d="M270.389 135.473L275.834 135.908L278.578 132.128L272.655 130.478L270.389 135.473Z" fill="#E4897B"/>
<path d="M244.628 54.4898C244.549 54.9169 244.252 55.2138 243.977 55.1559C243.701 55.0979 243.549 54.7142 243.636 54.2943C243.723 53.8743 244.013 53.5703 244.288 53.6282C244.563 53.6861 244.722 54.0698 244.628 54.4898Z" fill="#263238"/>
<path d="M244.295 55.2139C243.531 56.3984 242.607 57.4727 241.551 58.4068C241.798 58.6691 242.098 58.8749 242.432 59.0099C242.766 59.1449 243.125 59.2059 243.484 59.1888L244.295 55.2139Z" fill="#DE5753"/>
<path d="M246.641 52.4703C246.573 52.4686 246.508 52.44 246.46 52.3907C246.252 52.1528 245.991 51.9672 245.698 51.849C245.405 51.7307 245.088 51.6832 244.773 51.7101C244.713 51.7107 244.655 51.69 244.609 51.6516C244.562 51.6133 244.531 51.5598 244.521 51.5008C244.511 51.4417 244.521 51.3808 244.552 51.329C244.582 51.2772 244.63 51.2378 244.686 51.2178C245.089 51.1668 245.498 51.2161 245.877 51.3613C246.256 51.5066 246.593 51.7433 246.858 52.0504C246.905 52.0978 246.931 52.1615 246.931 52.2278C246.931 52.2941 246.905 52.3578 246.858 52.4052C246.829 52.4317 246.795 52.4513 246.757 52.4626C246.719 52.4739 246.68 52.4765 246.641 52.4703Z" fill="#263238"/>
<path d="M256.604 60.4053C255.844 64.3006 255.083 71.425 257.806 74.0243C257.806 74.0243 256.741 77.9703 249.508 77.9703C241.544 77.9703 245.714 74.0243 245.714 74.0243C250.059 72.9889 249.935 69.767 249.182 66.7478L256.604 60.4053Z" fill="#E4897B"/>
<path d="M258.899 76.4786C259.471 74.5744 260.1 72.3951 258.797 71.7072C257.349 70.9832 249.479 70.1868 246.764 71.5986C244.049 73.0105 244.823 76.8841 244.823 76.8841L258.899 76.4786Z" fill="#263238"/>
<path d="M275.595 257.03C275.37 257.06 275.141 257.045 274.923 256.985C274.704 256.925 274.499 256.823 274.321 256.683C274.258 256.595 274.224 256.49 274.224 256.382C274.224 256.274 274.258 256.169 274.321 256.082C274.362 256.007 274.419 255.941 274.488 255.89C274.556 255.839 274.635 255.803 274.719 255.785C275.501 255.611 276.963 256.61 277.028 256.654C277.047 256.669 277.062 256.69 277.071 256.712C277.079 256.735 277.082 256.76 277.079 256.784C277.075 256.808 277.064 256.829 277.047 256.846C277.03 256.863 277.008 256.874 276.985 256.878C276.528 256.977 276.062 257.028 275.595 257.03V257.03ZM274.929 256.017H274.777C274.728 256.027 274.682 256.048 274.641 256.078C274.601 256.108 274.568 256.146 274.545 256.19C274.429 256.393 274.502 256.48 274.545 256.509C274.769 256.813 275.856 256.813 276.652 256.683C276.133 256.34 275.544 256.118 274.929 256.031V256.017Z" fill="#2D69E7"/>
<path d="M276.956 256.9H276.898C276.348 256.596 275.284 255.452 275.392 254.844C275.411 254.75 275.462 254.666 275.535 254.605C275.609 254.544 275.702 254.511 275.798 254.511C275.893 254.501 275.99 254.51 276.082 254.537C276.174 254.564 276.259 254.61 276.334 254.67C276.949 255.177 277.058 256.712 277.058 256.777C277.061 256.8 277.057 256.823 277.046 256.844C277.036 256.865 277.02 256.882 277 256.893C276.986 256.899 276.971 256.901 276.956 256.9ZM275.885 254.728H275.856C275.689 254.728 275.675 254.83 275.668 254.859C275.602 255.213 276.283 256.089 276.826 256.502C276.789 255.897 276.573 255.317 276.203 254.837C276.155 254.799 276.099 254.771 276.039 254.755C275.979 254.738 275.917 254.734 275.856 254.743L275.885 254.728Z" fill="#2D69E7"/>
<path d="M243.658 257.03C242.977 257.03 242.318 256.936 242.094 256.632C242.037 256.552 242.007 256.456 242.007 256.357C242.007 256.259 242.037 256.163 242.094 256.082C242.138 256.008 242.197 255.943 242.266 255.892C242.336 255.841 242.415 255.805 242.499 255.785C243.376 255.546 245.244 256.603 245.323 256.647C245.344 256.66 245.361 256.68 245.372 256.703C245.382 256.726 245.385 256.752 245.381 256.777C245.377 256.802 245.365 256.826 245.347 256.844C245.329 256.862 245.305 256.874 245.28 256.878C244.745 256.979 244.202 257.03 243.658 257.03V257.03ZM242.811 256.002C242.732 255.991 242.651 255.991 242.572 256.002C242.521 256.012 242.473 256.033 242.43 256.063C242.388 256.093 242.352 256.131 242.326 256.176C242.232 256.335 242.268 256.408 242.326 256.451C242.565 256.784 243.911 256.806 244.91 256.668C244.26 256.317 243.546 256.096 242.811 256.017V256.002Z" fill="#2D69E7"/>
<path d="M245.266 256.9H245.215C244.57 256.618 243.303 255.452 243.398 254.866C243.398 254.721 243.521 254.547 243.868 254.511C243.997 254.491 244.129 254.501 244.255 254.538C244.38 254.576 244.495 254.641 244.592 254.728C245.273 255.278 245.41 256.712 245.418 256.777C245.42 256.799 245.417 256.822 245.408 256.842C245.399 256.863 245.385 256.88 245.367 256.893C245.352 256.901 245.334 256.906 245.317 256.908C245.3 256.909 245.282 256.906 245.266 256.9V256.9ZM243.97 254.728H243.89C243.665 254.728 243.651 254.844 243.644 254.873C243.586 255.235 244.455 256.14 245.092 256.531C245.029 255.923 244.776 255.35 244.368 254.895C244.264 254.805 244.135 254.752 243.998 254.743L243.97 254.728Z" fill="#2D69E7"/>
<path d="M251.116 256.77H245.794L245.266 244.454H250.587L251.116 256.77Z" fill="#E4897B"/>
<path d="M283.052 256.77H277.731L275.059 244.454H280.373L283.052 256.77Z" fill="#E4897B"/>
<path d="M277.354 256.154H283.328C283.434 256.155 283.537 256.192 283.62 256.259C283.703 256.326 283.761 256.419 283.784 256.524L284.834 261.251C284.858 261.367 284.855 261.486 284.827 261.6C284.798 261.714 284.745 261.82 284.669 261.911C284.594 262.001 284.5 262.073 284.393 262.122C284.286 262.171 284.169 262.195 284.052 262.193C281.966 262.157 280.953 262.033 278.324 262.033C276.71 262.033 273.379 262.207 271.142 262.207C268.905 262.207 268.622 260.035 269.535 259.796C273.633 258.898 275.175 257.66 276.485 256.487C276.723 256.272 277.033 256.153 277.354 256.154V256.154Z" fill="#263238"/>
<path d="M245.83 256.154H251.622C251.729 256.155 251.832 256.192 251.915 256.259C251.998 256.326 252.055 256.419 252.078 256.524L253.128 261.251C253.153 261.366 253.152 261.484 253.125 261.597C253.098 261.711 253.046 261.817 252.972 261.908C252.898 261.998 252.805 262.071 252.699 262.12C252.593 262.17 252.477 262.194 252.361 262.193C250.268 262.157 247.242 262.033 244.606 262.033C241.529 262.033 238.865 262.207 235.252 262.207C233.08 262.207 232.464 260.035 233.377 259.796C237.54 258.884 240.935 258.79 244.534 256.574C244.917 256.314 245.367 256.168 245.83 256.154V256.154Z" fill="#263238"/>
<path d="M243.275 83.3644C238.827 83.0198 234.401 82.4325 230.018 81.605C227.845 81.1851 225.63 80.7145 223.429 80.1208C221.173 79.5434 218.957 78.8178 216.797 77.9487C216.239 77.717 215.674 77.4636 215.117 77.2247C214.489 76.9155 213.885 76.5622 213.307 76.1676C212.264 75.4797 211.367 74.7629 210.476 74.0534C208.702 72.6053 207.059 71.1573 205.408 69.673C202.171 66.6755 199.101 63.5767 196.14 60.3185L198.805 57.3428L209.31 64.8944C211.041 66.1397 212.793 67.3634 214.516 68.5146C215.37 69.0866 216.246 69.6223 217.05 70.0785C217.386 70.2701 217.734 70.4394 218.093 70.5853C218.52 70.7518 218.954 70.9183 219.41 71.0776C223.324 72.2826 227.325 73.1783 231.379 73.7565C235.513 74.4082 239.785 74.944 243.912 75.3784L243.275 83.3644Z" fill="#E4897B"/>
<path d="M267.326 75.2264C272.315 76.3704 277.354 90.9451 277.354 90.9451L267.095 98.3085C267.095 98.3085 264.198 91.5171 261.404 85.58C258.479 79.3606 262.229 74.0607 267.326 75.2264Z" fill="#2D69E7"/>
<path opacity="0.4" d="M267.326 75.2264C272.315 76.3704 277.354 90.9451 277.354 90.9451L267.095 98.3085C267.095 98.3085 264.198 91.5171 261.404 85.58C258.479 79.3606 262.229 74.0607 267.326 75.2264Z" fill="black"/>
<path d="M264.452 83.1904L262.417 87.7446C264.524 92.2915 266.45 96.795 266.964 97.9969C266.892 92.6173 265.871 85.9417 264.452 83.1904Z" fill="#2D69E7"/>
<path opacity="0.6" d="M264.452 83.1904L262.417 87.7446C264.524 92.2915 266.45 96.795 266.964 97.9969C266.892 92.6173 265.871 85.9417 264.452 83.1904Z" fill="black"/>
<path d="M237.533 75.5015C237.533 75.5015 231.871 81.8947 237.214 121.477H265.662C265.864 117.133 263.12 95.8033 267.327 75.2264C264.182 74.6209 261.002 74.2194 257.806 74.0245C253.779 73.7926 249.742 73.7926 245.714 74.0245C242.953 74.3027 240.217 74.7966 237.533 75.5015V75.5015Z" fill="#2D69E7"/>
<path opacity="0.4" d="M237.533 75.5015C237.533 75.5015 231.871 81.8947 237.214 121.477H265.662C265.864 117.133 263.12 95.8033 267.327 75.2264C264.182 74.6209 261.002 74.2194 257.806 74.0245C253.779 73.7926 249.742 73.7926 245.714 74.0245C242.953 74.3027 240.217 74.7966 237.533 75.5015V75.5015Z" fill="black"/>
<path d="M235.426 83.1904C235.237 84.6892 235.093 86.4631 234.999 88.5555C237.808 87.7123 240.477 86.4583 242.919 84.834L235.426 83.1904Z" fill="#2D69E7"/>
<path opacity="0.6" d="M235.426 83.1904C235.237 84.6892 235.093 86.4631 234.999 88.5555C237.808 87.7123 240.477 86.4583 242.919 84.834L235.426 83.1904Z" fill="black"/>
<path d="M247.618 83.9868C243.81 87.3608 229.271 87.0205 229.271 87.0205L228.793 72.9453C233.703 73.6446 238.655 74.0027 243.614 74.0169C251.716 73.8503 251.774 80.2653 247.618 83.9868Z" fill="#2D69E7"/>
<path opacity="0.4" d="M247.618 83.9868C243.81 87.3608 229.271 87.0205 229.271 87.0205L228.793 72.9453C233.703 73.6446 238.655 74.0027 243.614 74.0169C251.716 73.8503 251.774 80.2653 247.618 83.9868Z" fill="black"/>
<path d="M198.942 57.372L195.321 53.1074L191.419 57.4516C191.419 57.4516 193.823 61.4917 197.638 60.8545L198.942 57.372Z" fill="#E4897B"/>
<path d="M190.138 48.1328L188.733 53.7006L191.39 57.4221L195.293 53.1069L190.138 48.1328Z" fill="#E4897B"/>
<path d="M245.266 244.461L245.541 250.803H250.862L250.587 244.461H245.266Z" fill="#CE6F64"/>
<path d="M280.381 244.461H275.059L276.435 250.803H281.756L280.381 244.461Z" fill="#CE6F64"/>
<path d="M248.466 49.2337C243.694 47.0616 242.188 37.4103 255.916 39.8213C255.916 39.8213 253.845 42.1092 258.045 43.5573C262.244 45.0053 258.732 53.9471 248.466 49.2337Z" fill="#263238"/>
<path d="M258.834 56.4738C257.465 61.5421 256.93 64.6264 253.766 66.7478C249.03 69.9336 243.144 66.2772 242.956 60.8687C242.789 56.0105 245.055 48.4878 250.522 47.4597C251.728 47.2231 252.976 47.2996 254.144 47.6819C255.313 48.0642 256.364 48.7395 257.198 49.6434C258.031 50.5473 258.619 51.6497 258.905 52.8455C259.192 54.0412 259.167 55.2904 258.834 56.4738Z" fill="#E4897B"/>
<path d="M255.728 42.355C258.979 44.1651 263.381 45.2511 262.968 47.8287C262.425 50.9782 265.625 49.0089 264.88 53.6933C264.394 56.756 258.747 66.038 254.743 65.5891C248.763 64.8651 249.523 55.7713 249.501 50.9782C249.487 48.1473 249.356 38.7855 255.728 42.355Z" fill="#263238"/>
<path d="M248.784 46.417C247.336 46.7573 245.417 55.1054 251.029 55.8728C257.48 56.7489 248.784 46.417 248.784 46.417Z" fill="#263238"/>
<path d="M248.929 49.3789C247.155 49.5382 243.137 47.4023 243.629 44.1876C243.629 44.1659 246.17 47.9453 248.929 49.3789Z" fill="#263238"/>
<path d="M251.564 56.5386C251.02 57.7324 250.096 58.7125 248.936 59.3261C247.409 60.1226 246.547 58.9641 246.894 57.4292C247.206 56.0535 248.379 53.9755 249.95 53.809C251.521 53.6425 252.194 55.0905 251.564 56.5386Z" fill="#E4897B"/>
<path d="M259.529 50.6812C260.611 50.2116 261.56 49.481 262.29 48.5548C263.02 47.6286 263.509 46.5357 263.714 45.374C263.714 45.374 266.103 52.0134 259.529 50.6812Z" fill="#263238"/>
<path d="M265.567 50.573C265.064 50.2346 264.484 50.0264 263.88 49.967C263.276 49.9076 262.666 49.9989 262.106 50.2327C262.106 50.2327 264.336 47.3438 265.567 50.573Z" fill="#263238"/>
<path d="M247.307 121.477C247.307 121.477 253.346 162.124 256.654 177.351C260.275 194.003 273.959 249.58 273.959 249.58H283.697C283.697 249.58 274.683 195.372 272.612 178.835C270.367 160.915 265.661 121.448 265.661 121.448L247.307 121.477Z" fill="#2D69E7"/>
<path opacity="0.5" d="M247.307 121.477C247.307 121.477 253.346 162.124 256.654 177.351C260.275 194.003 273.959 249.58 273.959 249.58H283.697C283.697 249.58 274.683 195.372 272.612 178.835C270.367 160.915 265.661 121.448 265.661 121.448L247.307 121.477Z" fill="white"/>
<path d="M272.402 245.989C272.359 245.989 273.409 249.733 273.409 249.733H284.37L284.168 246.395L272.402 245.989Z" fill="#2D69E7"/>
<path opacity="0.1" d="M272.402 245.989C272.359 245.989 273.409 249.733 273.409 249.733H284.37L284.168 246.395L272.402 245.989Z" fill="black"/>
<path d="M251.123 135.957C258.103 137.326 257.364 163.355 256.524 176.742C254.511 167.279 251.565 149.07 249.552 136.146C250.039 135.906 250.593 135.839 251.123 135.957Z" fill="#2D69E7"/>
<path opacity="0.4" d="M251.123 135.957C258.103 137.326 257.364 163.355 256.524 176.742C254.511 167.279 251.565 149.07 249.552 136.146C250.039 135.906 250.593 135.839 251.123 135.957Z" fill="white"/>
<path d="M237.214 121.478C237.214 121.478 236.49 161.241 237.062 177.467C237.663 194.337 243.578 249.58 243.578 249.58H252.585C252.585 249.58 252.918 195.321 253.309 178.756C253.751 160.691 255.93 121.478 255.93 121.478H237.214Z" fill="#2D69E7"/>
<path opacity="0.5" d="M237.214 121.478C237.214 121.478 236.49 161.241 237.062 177.467C237.663 194.337 243.578 249.58 243.578 249.58H252.585C252.585 249.58 252.918 195.321 253.309 178.756C253.751 160.691 255.93 121.478 255.93 121.478H237.214Z" fill="white"/>
<path d="M245.446 243.108C245.425 243.108 245.403 243.1 245.387 243.085C245.371 243.07 245.361 243.05 245.359 243.028C243.767 227.736 240.023 190.739 239.567 177.467C239.082 163.92 239.524 133.526 239.669 124.533C239.669 124.51 239.678 124.488 239.694 124.472C239.71 124.455 239.732 124.446 239.755 124.446C239.779 124.446 239.802 124.455 239.82 124.471C239.837 124.487 239.848 124.509 239.85 124.533C239.705 133.526 239.263 163.92 239.748 177.46C240.219 190.731 243.962 227.715 245.54 243.006C245.541 243.031 245.532 243.055 245.516 243.073C245.5 243.092 245.478 243.104 245.454 243.108H245.446Z" fill="#2D69E7"/>
<path opacity="0.4" d="M245.446 243.108C245.425 243.108 245.403 243.1 245.387 243.085C245.371 243.07 245.361 243.05 245.359 243.028C243.767 227.736 240.023 190.739 239.567 177.467C239.082 163.92 239.524 133.526 239.669 124.533C239.669 124.51 239.678 124.488 239.694 124.472C239.71 124.455 239.732 124.446 239.755 124.446C239.779 124.446 239.802 124.455 239.82 124.471C239.837 124.487 239.848 124.509 239.85 124.533C239.705 133.526 239.263 163.92 239.748 177.46C240.219 190.731 243.962 227.715 245.54 243.006C245.541 243.031 245.532 243.055 245.516 243.073C245.5 243.092 245.478 243.104 245.454 243.108H245.446Z" fill="white"/>
<path d="M241.826 245.989C241.79 245.989 242.34 249.733 242.34 249.733H253.295L253.592 246.395L241.826 245.989Z" fill="#2D69E7"/>
<path opacity="0.1" d="M241.826 245.989C241.79 245.989 242.34 249.733 242.34 249.733H253.295L253.592 246.395L241.826 245.989Z" fill="black"/>
</svg>
