<svg width="64" height="64" viewBox="0 0 64 64" fill="none" xmlns="http://www.w3.org/2000/svg">
<circle cx="32" cy="32" r="31.5" stroke="#5454D4"/>
<path d="M52 31.482C52 28.832 48.6817 26.3203 43.5933 24.7637C44.7683 19.5787 44.2467 15.452 41.9467 14.1303C41.3894 13.8182 40.7586 13.6611 40.12 13.6753V15.492C40.495 15.492 40.7967 15.567 41.05 15.7053C42.1583 16.342 42.64 18.762 42.265 21.877C42.175 22.6437 42.0283 23.4503 41.8483 24.2737C40.1444 23.8631 38.415 23.5663 36.6717 23.3853C35.6331 21.9525 34.5 20.5906 33.28 19.3087C35.9383 16.8387 38.4333 15.4853 40.13 15.4853V13.667C37.8867 13.667 34.9517 15.2653 31.9833 18.037C29.0167 15.2837 26.08 13.7003 23.8383 13.7003V15.517C25.5267 15.517 28.03 16.8637 30.6883 19.317C29.5467 20.517 28.405 21.877 27.32 23.3853C25.5731 23.5643 23.8406 23.8639 22.135 24.282C21.9547 23.5016 21.8129 22.7129 21.71 21.9187C21.3267 18.802 21.8 16.382 22.9017 15.7387C23.145 15.592 23.4633 15.5253 23.8383 15.5253V13.7087C23.155 13.7087 22.5333 13.8553 21.9967 14.1637C19.705 15.4853 19.1917 19.602 20.3733 24.772C15.3017 26.3387 12 28.8403 12 31.482C12 34.132 15.3183 36.6437 20.4067 38.1987C19.2317 43.3853 19.7533 47.512 22.0533 48.832C22.5833 49.142 23.2033 49.2887 23.8867 49.2887C26.13 49.2887 29.065 47.6903 32.0333 44.9187C35 47.6737 37.935 49.2553 40.1783 49.2553C40.8218 49.2689 41.4574 49.1113 42.02 48.7987C44.3117 47.4787 44.825 43.362 43.6433 38.192C48.6983 36.6353 52 34.1237 52 31.482ZM41.3833 26.0437C41.0666 27.1334 40.6996 28.2079 40.2833 29.2637C39.6019 27.9383 38.8538 26.6483 38.0417 25.3987C39.2 25.5703 40.3167 25.782 41.385 26.0437H41.3833ZM37.65 34.727C37.0395 35.7928 36.3839 36.832 35.685 37.842C33.2388 38.0576 30.7784 38.0604 28.3317 37.8503C26.9282 35.8456 25.7009 33.7233 24.6633 31.507C25.6993 29.2855 26.9214 27.1557 28.3167 25.1403C30.7623 24.9243 33.2221 24.9209 35.6683 25.1303C36.345 26.1003 37.0067 27.137 37.6417 28.2303C38.2617 29.297 38.825 30.3803 39.3383 31.4737C38.8193 32.5803 38.2561 33.6656 37.65 34.727ZM40.2833 33.667C40.7233 34.7587 41.1 35.852 41.4083 36.912C40.3417 37.1737 39.215 37.3937 38.05 37.5637C38.8587 36.3027 39.6041 35.0022 40.2833 33.667ZM32.0167 42.367C31.2583 41.5837 30.5 40.712 29.75 39.757C30.4833 39.7903 31.2333 39.8153 31.9917 39.8153C32.7583 39.8153 33.5167 39.7987 34.2583 39.757C33.525 40.712 32.7667 41.5837 32.0167 42.367ZM25.95 37.5637C24.8262 37.4008 23.7106 37.1862 22.6067 36.9203C22.9083 35.8687 23.2833 34.7837 23.7067 33.7003C24.0417 34.3503 24.3933 35.0037 24.7767 35.657C25.16 36.3087 25.55 36.9453 25.95 37.5637ZM31.975 20.597C32.7333 21.3803 33.4917 22.252 34.2417 23.207C33.5083 23.1737 32.7583 23.1487 32 23.1487C31.2333 23.1487 30.475 23.1653 29.7333 23.207C30.4667 22.252 31.225 21.3803 31.975 20.597ZM25.9417 25.4003C25.1331 26.6585 24.3877 27.9563 23.7083 29.2887C23.2804 28.2261 22.9049 27.1431 22.5833 26.0437C23.65 25.7903 24.7767 25.5703 25.9417 25.4003ZM18.5633 35.607C15.6767 34.377 13.81 32.762 13.81 31.482C13.81 30.202 15.6767 28.5787 18.5633 27.357C19.2633 27.0553 20.03 26.7853 20.8217 26.5337C21.2867 28.1303 21.8983 29.7937 22.655 31.4987C21.9406 33.1023 21.3364 34.7528 20.8467 36.4387C20.0724 36.1989 19.3104 35.9214 18.5633 35.607ZM22.95 47.257C21.8417 46.6237 21.36 44.2003 21.735 41.087C21.825 40.3203 21.9717 39.512 22.1517 38.6887C23.7483 39.0803 25.4933 39.382 27.3283 39.5787C28.367 41.0115 29.5 42.3734 30.72 43.6553C28.0617 46.1253 25.5667 47.4787 23.87 47.4787C23.5499 47.4822 23.2339 47.4066 22.95 47.2587V47.257ZM42.29 41.0453C42.6733 44.1603 42.2 46.582 41.0983 47.2253C40.855 47.372 40.5367 47.437 40.1617 47.437C38.4733 47.437 35.97 46.092 33.3117 43.637C34.5265 42.3604 35.652 41.0017 36.68 39.5703C38.4269 39.3914 40.1594 39.0918 41.865 38.6737C42.0533 39.497 42.1983 40.287 42.29 41.0453ZM45.4283 35.607C44.7283 35.9087 43.9617 36.1787 43.17 36.4303C42.6716 34.7359 42.0591 33.0771 41.3367 31.4653C42.0867 29.7703 42.6883 28.1153 43.145 26.5253C43.9217 26.7659 44.6865 27.0434 45.4367 27.357C48.3233 28.587 50.19 30.202 50.19 31.482C50.1817 32.762 48.315 34.3853 45.4283 35.607Z" fill="#5454D4"/>
<path d="M31.9918 35.2082C32.9802 35.2082 33.9281 34.8156 34.627 34.1167C35.3258 33.4178 35.7185 32.4699 35.7185 31.4815C35.7185 30.4932 35.3258 29.5453 34.627 28.8464C33.9281 28.1475 32.9802 27.7549 31.9918 27.7549C31.0034 27.7549 30.0555 28.1475 29.3567 28.8464C28.6578 29.5453 28.2651 30.4932 28.2651 31.4815C28.2651 32.4699 28.6578 33.4178 29.3567 34.1167C30.0555 34.8156 31.0034 35.2082 31.9918 35.2082Z" fill="#5454D4"/>
</svg>
